<svg width="146" height="41" viewBox="0 0 146 41" fill="none" xmlns="http://www.w3.org/2000/svg">
<path d="M42.0555 8.28027H18.0425V17.1422H42.0555V8.28027Z" fill="white"/>
<path d="M12.9867 7.78144L11.9962 21.8123C11.9962 21.8123 13.7365 26.0042 13.7984 26.0042C13.8603 26.0042 16.7974 26.4892 16.7974 26.4892C16.7974 26.4892 17.7948 22.9694 17.7742 22.8377C17.7536 22.7061 17.4509 11.6962 17.4509 11.6962L16.7974 6.78369C16.7974 6.78369 13.7915 5.93145 13.028 7.69136L12.9936 7.78144H12.9867Z" fill="black"/>
<path d="M16.8456 6.78375C17.1001 6.15323 17.2996 5.50192 17.8567 4.87833C16.8112 4.87833 15.8895 4.87833 14.9677 4.87833C14.727 4.87833 14.7683 5.05848 14.7683 5.19013C14.7683 5.73057 14.7751 6.26409 14.7683 6.80454C14.7683 6.90847 14.8164 7.16484 14.6651 7.09555C14.4725 7.00547 14.0804 7.19255 14.0873 6.77682C14.0873 6.28488 14.0598 5.786 14.0942 5.29406C14.1217 4.92683 13.9772 4.85062 13.6264 4.8714C13.2 4.89912 12.7735 4.8714 12.347 4.88526C12.1338 4.89219 12.0994 4.82983 12.1338 4.63582C12.1957 4.28938 12.2782 3.94987 12.4846 3.65886C12.7116 3.34014 13.0074 3.14613 13.4338 3.14613C14.7889 3.14613 16.1509 3.11841 17.5059 3.13227C18.0562 3.13227 18.5033 3.38171 18.7922 3.90137C20.0991 2.97291 21.5987 2.77197 23.167 2.86205C23.4834 2.88283 23.621 2.83433 23.621 2.47403C23.6347 1.17142 24.357 0.513182 25.7327 0.506253C27.3491 0.499324 28.9656 0.506253 30.5821 0.506253C31.8959 0.506253 32.9139 1.18528 32.8245 2.56411C32.8038 2.87591 32.9827 2.86898 33.2097 2.86898C34.778 2.86898 36.3532 2.8274 37.9215 2.87591C40.1845 2.95212 41.8423 3.97759 42.7846 5.9523C43.0735 6.56203 43.1973 7.2272 43.1973 7.91315C43.1973 13.5878 43.1973 19.2625 43.1905 24.9303C43.1905 25.346 43.2868 25.5608 43.727 25.7687C45.7699 26.7456 46.788 28.4224 47.0218 30.5357C47.2007 32.1709 47.0149 33.7576 45.9556 35.1572C45.4948 35.7669 44.9032 36.245 44.2429 36.6538C44.1535 36.7093 44.0503 36.7578 44.0228 36.8686C43.8921 37.4922 43.5138 38.005 43.1217 38.5177C43.3074 38.6147 43.4794 38.5731 43.6376 38.5731C45.1302 38.5731 46.6297 38.5731 48.1224 38.5593C48.3975 38.5593 48.4801 38.6355 48.4044 38.878C48.37 38.9888 48.3494 39.1066 48.3219 39.2175C48.0055 40.43 47.916 40.5063 46.6297 40.5063C31.49 40.5063 16.3572 40.5063 1.2175 40.5063C0.832305 40.5063 0.61907 40.3746 0.453985 40.0836C0.1926 39.6263 0.0756641 39.1343 0 38.58H3.17102C2.14611 37.4922 1.70588 36.245 1.48577 34.9355C1.11433 32.6836 1.13496 30.4456 2.04293 28.2838C2.52443 27.1337 3.28795 26.1913 4.47106 25.5331C3.81072 25.0204 3.21917 24.4869 2.67576 23.9048C-1.13496 19.7545 -0.302656 12.3407 5.20019 9.34741C5.58539 9.13955 5.99122 8.98018 6.41082 8.82775C6.78226 8.6961 6.90607 8.20416 6.65157 7.92008C6.31452 7.54592 6.30076 7.05398 6.62405 6.67289C6.91983 6.32645 7.30503 6.13937 7.77277 6.13937C9.21039 6.13937 10.6411 6.13937 12.0787 6.13937C12.4571 6.13937 12.7941 6.24331 13.0968 6.47196C13.6333 6.88076 13.6608 6.97776 13.3719 7.54592C13.2137 7.85772 13.1724 8.18337 13.1724 8.52288C13.1587 10.9341 13.1449 13.3523 13.1312 15.7635C13.1312 16.4079 12.8767 17.0245 12.9248 17.6689C12.9386 17.8976 12.8904 18.1331 12.9454 18.3618C12.9523 18.4934 12.973 18.6182 12.973 18.7498C12.9867 20.2811 13.1587 21.7985 13.6402 23.2674C13.9704 24.279 14.4312 25.2213 15.2222 25.9835C15.3323 26.0874 15.4148 26.2191 15.6418 26.1221C16.7699 25.6093 16.7768 25.6232 16.7768 24.4314C16.7768 24.1681 16.7768 23.9048 16.7768 23.6485C16.7974 18.0223 16.7355 12.403 16.8456 6.77682V6.78375ZM13.1518 31.1662C13.1793 31.0415 13.2 30.9099 13.2412 30.7851C13.3306 30.4872 13.2687 30.3625 12.8973 30.4248C12.5878 30.4803 12.2576 30.5149 11.9481 30.4872C11.4528 30.4387 11.3359 30.6396 11.4528 31.0484C11.4666 31.09 11.4803 31.1316 11.4941 31.1731C11.5078 31.6512 11.5285 32.1293 11.5285 32.6074C11.5285 32.8568 11.6385 32.94 11.8861 32.9261C12.2026 32.9123 12.5259 32.9123 12.8423 32.9261C13.0968 32.94 13.1931 32.8568 13.1862 32.6074C13.1656 32.1293 13.1656 31.6512 13.1656 31.1731L13.1518 31.1662ZM19.033 7.55285C19.2806 7.50435 19.4732 7.35884 19.6796 7.24105C20.959 6.52046 22.3416 6.08394 23.8204 6.0008C26.2348 5.86222 28.2434 6.68675 29.7773 8.48131C29.9836 8.72382 30.0799 8.7446 30.3069 8.48824C30.9535 7.73993 31.717 7.10941 32.6388 6.68675C34.9362 5.62664 37.2336 5.83451 39.5242 6.72832C40.0263 6.92233 40.4459 7.2757 40.9687 7.42813C41.1131 7.66371 41.3539 7.76071 41.6153 7.84386C41.5534 5.83451 40.0676 4.55961 38.2723 4.53882C32.7694 4.49032 27.2666 4.5111 21.7638 4.53882C19.824 4.54575 18.3726 6.18787 18.4827 7.94086C18.7028 7.84386 18.8816 7.72607 19.033 7.56671V7.55285ZM11.8311 9.63842C11.9687 9.30584 12.0994 8.98018 12.2438 8.62681C12.0375 8.57138 11.8999 8.64067 11.7555 8.68917C10.3454 9.14647 8.92837 9.58992 7.52514 10.0611C5.15892 10.851 3.55621 12.3822 2.68264 14.6133C2.24241 15.7358 2.11172 16.8929 2.19426 18.0777C2.19426 18.3202 2.20802 18.5697 2.20802 18.8122C2.20802 19.0893 2.36622 19.1725 2.62761 19.0962C3.06096 18.9646 3.48743 18.8122 3.92766 18.6805C4.19592 18.6043 4.31973 18.4449 4.36101 18.1816C4.45731 17.5026 4.59488 16.8375 4.67054 16.1584C4.79435 15.0429 5.42718 14.3708 6.54151 14.0451C8.00664 13.6156 9.45114 13.1028 10.9438 12.7356C11.1501 12.6871 11.3083 12.6109 11.3359 12.3822C11.439 11.4607 11.611 10.5461 11.838 9.63842H11.8311ZM18.9642 25.6578C20.8627 26.3576 21.7087 27.591 21.4473 29.2816C21.3648 29.822 21.3648 29.829 21.9495 29.829C27.356 29.829 32.7695 29.829 38.176 29.829C38.403 29.829 38.6369 29.8151 38.8639 29.829C39.1252 29.8428 39.2147 29.7735 39.139 29.5102C39.0083 29.0737 38.9464 28.6303 39.0427 28.173C39.2766 27.0505 39.9575 26.2676 41.0237 25.7687C41.5602 25.734 41.6772 25.4638 41.6634 24.9719C41.6222 22.8517 41.6359 20.7245 41.6497 18.6043C41.6497 18.2925 41.5878 18.1886 41.2301 18.1886C33.76 18.2024 26.2898 18.2024 18.8197 18.1886C18.4827 18.1886 18.3933 18.2648 18.3933 18.5904C18.4139 20.7384 18.4139 22.8932 18.3933 25.0412C18.3933 25.4777 18.4896 25.6994 18.9779 25.6578H18.9642ZM30.0043 16.685C30.0043 16.685 30.0043 16.685 30.0043 16.6919C33.7118 16.6919 37.4194 16.685 41.1269 16.7058C41.5671 16.7058 41.6497 16.5742 41.6428 16.1931C41.6222 14.8835 41.629 13.574 41.6428 12.2644C41.6428 11.9873 41.5671 11.7586 41.4158 11.53C39.0152 7.97551 33.8631 7.19948 30.362 9.88786C30.1143 10.0819 29.9768 10.0957 29.7154 9.89479C28.0576 8.61296 26.1454 8.06558 24.0337 8.34966C21.7294 8.65453 19.8515 9.65921 18.6478 11.6339C18.4689 11.9319 18.3795 12.2367 18.3864 12.5901C18.407 13.7957 18.4139 15.0013 18.3933 16.2139C18.3933 16.5811 18.462 16.7058 18.8816 16.7058C22.5892 16.685 26.2967 16.6919 30.0043 16.6919V16.685ZM30.1212 31.4919C25.4094 31.4919 20.6907 31.4919 15.9789 31.4919C15.7657 31.4919 15.5524 31.4988 15.3392 31.4919C15.1466 31.4849 15.0916 31.5542 15.0709 31.7413C14.9677 32.7668 15.3529 33.5844 16.1646 34.2495C16.6048 34.6098 17.1414 34.8523 17.5747 35.2126C18.07 35.6284 18.5996 35.7877 19.2393 35.7877C26.5444 35.7808 33.8563 35.7739 41.1613 35.7808C41.6015 35.7808 42.0074 35.6838 42.3857 35.4829C42.9979 35.1503 43.5688 34.7692 44.0984 34.298C44.8276 33.6467 45.2059 32.9123 45.1577 31.9492C45.1371 31.5958 45.0683 31.4919 44.6831 31.4988C39.8337 31.5127 34.9843 31.5057 30.1281 31.5057L30.1212 31.4919ZM6.65157 24.57C8.4056 24.3275 10.1115 24.0919 11.8174 23.8633C12.0512 23.8286 11.9618 23.697 11.9068 23.5792C11.4597 22.5329 11.2189 21.4451 11.0882 20.3296C11.0607 20.1078 10.9851 20.0732 10.7718 20.1148C8.35057 20.5651 5.9362 21.0502 3.52182 21.556C3.13662 21.6391 3.12974 21.7846 3.32922 22.0479C4.06523 23.0318 4.94568 23.8633 6.0944 24.4037C6.287 24.4938 6.4796 24.5839 6.65157 24.5769V24.57ZM10.4623 38.5246H15.0296C14.3693 37.6585 13.9222 36.7439 13.5645 35.7808C13.4338 35.4274 13.4957 34.9147 13.1862 34.7553C12.8629 34.5891 12.3814 34.7068 11.9756 34.7068C11.9481 34.7068 11.9137 34.7068 11.8861 34.7068C11.7073 34.693 11.6523 34.7692 11.6385 34.9355C11.5629 36.2104 11.2327 37.4229 10.4623 38.5246ZM18.6065 29.8844C19.2806 29.8844 19.8928 29.2608 19.8859 28.5887C19.879 27.9305 19.3012 27.4039 18.5859 27.39C17.6641 27.3692 17.2652 28.076 17.2789 28.6233C17.2996 29.3439 17.8567 29.8844 18.6134 29.8844H18.6065ZM43.2936 28.6026C43.2936 27.9651 42.709 27.39 42.0486 27.397C41.347 27.397 40.7486 27.9513 40.7486 28.6095C40.7486 29.2954 41.347 29.9052 42.0211 29.8982C42.7158 29.8913 43.2868 29.3093 43.2936 28.6095V28.6026ZM8.4675 16.0406C8.48126 15.7566 8.59132 15.5348 8.31618 15.4933C8.06167 15.4517 7.93098 15.6041 7.88971 15.8397C7.84843 16.0684 7.77965 16.297 7.75901 16.5257C7.7315 16.8305 7.58017 16.976 7.26376 17.0453C6.23197 17.2809 6.23885 17.2948 6.35579 16.3039C6.36954 16.1654 6.55527 15.9298 6.23885 15.8882C5.9981 15.8605 5.78487 15.9436 5.7436 16.2277C5.6473 16.9345 5.551 17.6412 5.46158 18.3479C5.43406 18.5697 5.49597 18.6805 5.76423 18.6043C6.46584 18.4172 7.18121 18.2509 7.88971 18.0846C8.07543 18.0431 8.17173 17.953 8.19924 17.7659C8.28866 17.1492 8.39184 16.5395 8.47438 16.0476L8.4675 16.0406ZM35.8786 38.5454C35.6241 38.1574 35.4108 37.8387 35.2182 37.513C35.1288 37.3536 35.0256 37.2844 34.8261 37.2913C34.1383 37.3051 33.4573 37.2982 32.7694 37.2982C32.6319 37.2982 32.4668 37.2705 32.4255 37.4299C32.3155 37.8248 32.0541 38.1435 31.8271 38.5454H35.8786ZM4.13401 30.3833C3.99644 30.9445 3.88639 31.4988 3.76945 32.0462C3.56309 33.0162 3.81072 33.9239 3.96893 34.8523C3.98956 34.9771 3.96893 35.2196 4.18216 35.2126C4.35413 35.2126 4.36101 34.9979 4.3954 34.8662C4.75308 33.5012 4.73933 32.1363 4.38852 30.7713C4.35413 30.6396 4.32661 30.4872 4.14089 30.3763L4.13401 30.3833ZM7.09179 30.3694C6.54151 31.6235 6.56902 34.4782 7.13306 35.1572C7.74526 34.1803 7.71774 31.1801 7.09179 30.3694ZM10.9851 15.3755H10.9782C11.0057 15.1122 11.0263 14.8558 11.0538 14.5925C11.102 14.0382 11.0951 14.0521 10.5036 14.1837C9.97391 14.3015 9.67813 14.5371 9.67125 15.0775C9.67125 15.3755 9.58183 15.6803 9.5268 15.9783C9.40299 16.6989 9.70565 16.9853 10.4348 16.8375C10.4348 16.8375 10.4967 16.8236 10.5242 16.8236C10.8337 16.8167 10.93 16.6434 10.9369 16.3663C10.9369 16.0337 10.9713 15.7011 10.9851 15.3685V15.3755ZM23.1188 38.5246H24.1162C23.9443 38.2336 23.7929 37.9842 23.6141 37.6793C23.4352 37.9911 23.2908 38.2336 23.1257 38.5246H23.1188Z" fill="black"/>
<path d="M41.0169 25.7618C39.9576 26.2607 39.2697 27.0436 39.0358 28.1661C38.9395 28.6165 39.0083 29.0669 39.1321 29.5034C39.2078 29.7667 39.1184 29.8429 38.857 29.8221C38.63 29.8082 38.403 29.8221 38.1691 29.8221C32.7626 29.8221 27.3492 29.8221 21.9426 29.8221C21.3579 29.8221 21.3579 29.8221 21.4405 29.2747C21.7019 27.591 20.8489 26.3508 18.9573 25.651C18.9573 23.5723 18.9711 21.4937 18.9504 19.415C18.9504 18.9854 19.1086 18.8884 19.5351 18.8746C21.3167 18.8122 23.0982 18.8469 24.8798 18.8399C30.1143 18.8261 35.342 18.8399 40.5766 18.833C40.9068 18.833 41.0375 18.93 41.0306 19.2557C41.0169 21.4244 41.0169 23.5862 41.01 25.7549L41.0169 25.7618ZM23.3046 22.2351C22.0114 22.6785 21.3992 23.5307 21.4542 24.7502C21.5024 25.7965 22.0045 26.6071 22.885 27.2099C24.8385 28.5541 28.4291 28.3463 29.9355 26.7665C30.1281 26.5656 30.2382 26.621 30.3964 26.7942C30.699 27.1268 31.0705 27.3832 31.4901 27.5633C32.9758 28.2077 34.496 28.27 36.0368 27.7989C36.9516 27.5217 37.6945 27.0159 38.2861 26.2953C39.2559 25.1174 38.9258 23.212 37.6051 22.4568C37.4606 22.3736 37.3162 22.2489 37.103 22.3459C37.3024 22.4776 37.44 22.6508 37.5707 22.824C38.1966 23.6693 37.9353 24.5146 36.9241 24.8957C36.195 25.1729 35.4659 25.1452 34.7505 24.8264C34.2484 24.5978 33.8288 24.2652 33.4092 23.9257C32.8795 23.4961 32.288 23.212 31.5726 23.2882C30.9398 23.3575 30.4514 23.6624 30.135 24.2098C29.3646 23.1704 28.2778 22.9834 27.2047 23.6832C26.8126 23.9395 26.4481 24.2305 26.0629 24.4869C25.32 24.9858 24.5152 25.2352 23.6003 25.0066C22.431 24.7156 22.0527 23.7317 22.7543 22.7894C22.8919 22.6023 23.0845 22.4498 23.2908 22.2351H23.3046Z" fill="#D6A24F"/>
<path d="M11.8311 9.63847C11.6041 10.5461 11.4322 11.4538 11.329 12.3823C11.3015 12.6179 11.1433 12.6871 10.9369 12.7356C9.45113 13.1029 8.00664 13.6156 6.53463 14.0452C5.42718 14.3708 4.79435 15.0429 4.66366 16.1585C4.58799 16.8375 4.45042 17.5096 4.35412 18.1817C4.31973 18.445 4.18904 18.5974 3.92077 18.6806C3.48743 18.8122 3.05408 18.9646 2.62073 19.0963C2.35934 19.1794 2.20801 19.0963 2.20114 18.8122C2.20114 18.5697 2.18738 18.3203 2.18738 18.0778C2.41437 16.983 2.73078 15.909 3.17789 14.8766C3.81072 13.4216 4.69805 12.1121 6.20446 11.3915C7.91722 10.5669 9.78819 10.0888 11.6248 9.56225C11.7073 9.54146 11.7692 9.57611 11.8311 9.63154V9.63847Z" fill="#A95552"/>
<path d="M40.9619 7.42122C40.4391 7.26879 40.0195 6.92235 39.5174 6.72141C37.2268 5.8276 34.9294 5.61973 32.6319 6.67984C31.7171 7.1025 30.9536 7.73302 30.3001 8.48133C30.08 8.7377 29.9768 8.70998 29.7704 8.4744C28.2296 6.67984 26.228 5.85531 23.8136 5.99389C22.3347 6.07704 20.9521 6.51355 19.6727 7.23415C19.4664 7.35194 19.2738 7.49744 19.0261 7.54594C19.0261 7.47665 19.0124 7.40044 19.0261 7.33115C19.2669 6.22947 20.5394 5.21093 21.7225 5.19708C23.793 5.18322 25.8703 5.19708 27.9407 5.19708C31.4351 5.19708 34.9225 5.18322 38.4168 5.19708C39.6274 5.19708 40.8931 6.34033 40.955 7.42815L40.9619 7.42122Z" fill="#D6A24F"/>
<path d="M6.65162 24.5701C6.47965 24.5701 6.28705 24.4869 6.09446 24.3968C4.94574 23.8564 4.06528 23.0249 3.32927 22.0411C3.1298 21.7708 3.13668 21.6253 3.52187 21.5491C5.92937 21.0433 8.35062 20.5583 10.7719 20.1079C10.9851 20.0663 11.0608 20.1079 11.0883 20.3227C11.219 21.4382 11.4597 22.533 11.9068 23.5723C11.955 23.6901 12.0513 23.8287 11.8174 23.8564C10.1115 24.092 8.40565 24.3276 6.65162 24.5631V24.5701Z" fill="#A95552"/>
<path d="M8.46752 16.0406C8.38497 16.5326 8.2818 17.1492 8.19237 17.759C8.16486 17.953 8.06168 18.0361 7.88284 18.0777C7.17435 18.2509 6.46586 18.4172 5.75736 18.5974C5.4891 18.6666 5.42719 18.5627 5.45471 18.341C5.55101 17.6342 5.64043 16.9275 5.73673 16.2208C5.77112 15.9367 5.99124 15.8535 6.23198 15.8813C6.5484 15.9228 6.36268 16.1515 6.34892 16.297C6.23198 17.2809 6.22511 17.267 7.25689 17.0384C7.5733 16.9691 7.72463 16.8236 7.75215 16.5187C7.77278 16.2901 7.84157 16.0614 7.88284 15.8328C7.92411 15.5972 8.0548 15.4447 8.30931 15.4863C8.58445 15.5348 8.4744 15.7496 8.46064 16.0337L8.46752 16.0406Z" fill="#A95552"/>
<path d="M4.13404 30.3833C4.31976 30.4872 4.34728 30.6466 4.38167 30.7782C4.73248 32.1432 4.74623 33.5082 4.38855 34.8732C4.35416 35.0048 4.35416 35.2196 4.17531 35.2196C3.96208 35.2196 3.98959 34.984 3.96208 34.8593C3.80387 33.9308 3.56312 33.0232 3.7626 32.0531C3.87954 31.4988 3.98959 30.9515 4.12716 30.3902L4.13404 30.3833Z" fill="#D5A137"/>
<path d="M7.09185 30.3694C7.7178 31.1801 7.74531 34.1802 7.13312 35.1572C6.56908 34.4851 6.54156 31.6235 7.09185 30.3694Z" fill="#D6A24F"/>
<path d="M10.9851 15.3755C10.9645 15.7081 10.9369 16.0407 10.9369 16.3733C10.9369 16.6504 10.8406 16.8167 10.5242 16.8306C10.4967 16.8306 10.4623 16.8306 10.4348 16.8445C9.70568 16.9923 9.40302 16.7059 9.52684 15.9853C9.58187 15.6873 9.66441 15.3825 9.67129 15.0845C9.67817 14.5372 9.97394 14.3016 10.5036 14.1907C11.0951 14.0591 11.102 14.0452 11.0539 14.5995C11.0332 14.8628 11.0057 15.1192 10.9782 15.3825H10.9851V15.3755Z" fill="#A95552"/>
<path d="M13.1518 31.1662C13.1518 31.6443 13.1518 32.1224 13.1725 32.6005C13.1862 32.8499 13.0831 32.9331 12.8285 32.9192C12.5121 32.9053 12.1888 32.9053 11.8724 32.9192C11.6248 32.9261 11.5147 32.8499 11.5147 32.6005C11.5147 32.1224 11.4941 31.6443 11.4803 31.1662C12.0375 31.1108 12.5878 31.1177 13.145 31.1662H13.1518Z" fill="#D6A24F"/>
<path d="M23.3046 22.2351C23.0982 22.443 22.9125 22.6023 22.768 22.7894C22.0664 23.7317 22.4448 24.7156 23.6141 25.0066C24.5221 25.2353 25.3338 24.9858 26.0766 24.487C26.4618 24.2306 26.8264 23.9396 27.2185 23.6832C28.2915 22.9834 29.3783 23.1774 30.1487 24.2098C30.4652 23.6624 30.9535 23.3576 31.5864 23.2883C32.3017 23.2121 32.8933 23.4962 33.4229 23.9257C33.8425 24.2652 34.2621 24.6048 34.7643 24.8265C35.4796 25.1452 36.2088 25.1729 36.9379 24.8958C37.949 24.5147 38.2104 23.6694 37.5845 22.8241C37.4538 22.6439 37.3162 22.4776 37.1167 22.346C37.33 22.249 37.4744 22.3737 37.6189 22.4568C38.9395 23.2121 39.2697 25.1175 38.2998 26.2954C37.7083 27.016 36.9654 27.5218 36.0505 27.7989C34.5029 28.2632 32.9896 28.2077 31.5038 27.5634C31.0773 27.3763 30.7128 27.1199 30.4101 26.7943C30.245 26.621 30.135 26.5656 29.9493 26.7665C28.4429 28.3532 24.8591 28.5611 22.8987 27.21C22.0183 26.6003 21.5162 25.7965 21.468 24.7503C21.413 23.5239 22.0252 22.6786 23.3183 22.2351H23.3046Z" fill="#1B1C19"/>
<path d="M25.3337 10.4074C24.921 10.8647 24.8385 11.322 25.1343 11.807C25.3681 12.1881 25.7396 12.3405 26.1867 12.2713C26.792 12.1812 27.0946 11.7862 27.2047 11.2319C28.2365 11.9248 28.5254 13.6293 27.8238 14.8349C26.9502 16.3246 25.0655 16.9343 23.4009 16.2692C21.8876 15.6594 21.0553 13.9827 21.523 12.4791C22.0045 10.9409 23.5384 10.0887 25.3406 10.4074H25.3337Z" fill="#1B1C19"/>
<path d="M37.4813 11.1628C38.4718 11.9666 38.7951 13.3801 38.2861 14.5857C37.5776 16.2763 35.3902 17.0315 33.6087 16.2001C31.8753 15.3894 31.2287 13.3177 32.2261 11.7379C32.8658 10.7125 34.0902 10.172 35.349 10.3383C35.5209 10.3591 35.6172 10.3799 35.4865 10.567C35.1564 11.0104 35.1564 11.4608 35.514 11.8904C35.7961 12.2229 36.1744 12.3685 36.6146 12.2507C37.1649 12.1052 37.4057 11.6964 37.4882 11.1559L37.4813 11.1628Z" fill="#1B1C19"/>
<path d="M30.2107 32.9746C30.9398 32.9746 31.6689 32.9746 32.3981 32.9746C32.6595 32.9746 32.914 33.0161 32.9277 33.321C32.9415 33.6466 32.7007 33.7852 32.3912 33.7852C30.9192 33.7852 29.4403 33.7852 27.9683 33.7714C27.6656 33.7714 27.4111 33.6397 27.4455 33.3071C27.473 32.9815 27.7482 32.9607 28.0233 32.9607C28.7524 32.9607 29.4816 32.9607 30.2107 32.9607V32.9746Z" fill="#1F2E31"/>
<path d="M16.8594 32.7183C17.694 32.7183 18.1136 33.1179 18.1181 33.917C18.1181 34.2219 18.1181 34.5267 18.1181 34.8316C18.1181 35.0533 18.0012 35.0949 17.8361 34.9632C17.107 34.3951 16.3435 33.8616 15.8207 33.0925C15.7588 33.0024 15.635 32.9054 15.7106 32.7876C15.7863 32.6698 15.9308 32.7322 16.0477 32.7252C16.3228 32.7183 16.598 32.7252 16.8731 32.7252L16.8594 32.7183Z" fill="#D6A24F"/>
<path d="M55.9846 8.00316V18.7082C55.9846 18.923 56.0327 19.0823 56.129 19.1932C56.2253 19.304 56.3973 19.3941 56.6449 19.4634V19.796H52.2701V19.4634C52.5178 19.3941 52.6897 19.304 52.786 19.1932C52.8823 19.0823 52.9305 18.923 52.9305 18.7082V8.00316H48.5763C48.37 8.00316 48.2118 8.05166 48.1017 8.14867C47.9917 8.24567 47.9023 8.41889 47.8335 8.66833H47.5033V5.01685H47.8335C47.9091 5.26628 47.9986 5.4395 48.1086 5.53651C48.2118 5.63351 48.37 5.68201 48.5763 5.68201H60.3387C60.5519 5.68201 60.7101 5.63351 60.8202 5.53651C60.9302 5.4395 61.0197 5.26628 61.0884 5.01685H61.4186V8.66833H61.0884C61.0197 8.41889 60.9302 8.24567 60.8202 8.14867C60.7101 8.05166 60.5519 8.00316 60.3387 8.00316H55.9914H55.9846Z" fill="#A95552" stroke="#1F2E31" stroke-width="0.51" stroke-miterlimit="10"/>
<path d="M71.5026 16.2001H65.1331L64.1907 18.1886C64.06 18.4658 63.9981 18.6806 63.9981 18.8399C63.9981 19.1448 64.2251 19.3527 64.686 19.4705V19.803H60.0498V19.4705C60.3249 19.415 60.5313 19.318 60.6758 19.1794C60.8202 19.0409 60.9853 18.7706 61.171 18.3757L66.3299 7.52519C66.495 7.17875 66.5776 6.9016 66.5776 6.70066C66.5776 6.38194 66.3781 6.15329 65.9791 6.01471V5.68213H70.9523V6.01471C70.5465 6.1325 70.347 6.33344 70.347 6.62445C70.347 6.82538 70.4089 7.05403 70.5396 7.3104L75.8774 18.1956C76.1044 18.6598 76.3038 18.9716 76.4758 19.1448C76.6478 19.3111 76.8748 19.4289 77.1637 19.4843V19.8169H72.0047V19.4843C72.4587 19.4081 72.6857 19.1933 72.6857 18.8399C72.6857 18.6944 72.6169 18.4796 72.4794 18.1956L71.5164 16.207L71.5026 16.2001ZM70.6221 14.2669L68.3453 9.23661L66.0342 14.2669H70.6153H70.6221Z" fill="#A95552" stroke="#1F2E31" stroke-width="0.51" stroke-miterlimit="10"/>
<path d="M81.8066 10.1233V18.7081C81.8066 18.9229 81.8547 19.0823 81.951 19.1932C82.0473 19.304 82.2193 19.3941 82.4669 19.4634V19.796H78.3467V19.4634C78.5943 19.3941 78.7663 19.304 78.8626 19.1932C78.9589 19.0823 79.007 18.9229 79.007 18.7081V6.75594C79.007 6.54808 78.9589 6.38872 78.8626 6.27786C78.7663 6.16699 78.5943 6.07692 78.3467 6.00763V5.67505H83.1135V6.00763C82.8177 6.08385 82.6733 6.24321 82.6733 6.48572C82.6733 6.65201 82.7696 6.83216 82.9622 7.03309L90.6937 15.1329V6.75594C90.6937 6.54808 90.6455 6.38872 90.5492 6.27786C90.4529 6.16699 90.281 6.07692 90.0333 6.00763V5.67505H94.1536V6.00763C93.906 6.07692 93.734 6.16699 93.6377 6.27786C93.5414 6.38872 93.4933 6.54808 93.4933 6.75594V18.7151C93.4933 18.9299 93.5414 19.0892 93.6377 19.2001C93.734 19.3109 93.906 19.401 94.1536 19.4703V19.8029H89.7376V19.4703C90.0265 19.4079 90.1709 19.2624 90.1709 19.0269C90.1709 18.8883 90.0058 18.6458 89.6688 18.2993L81.8135 10.1233H81.8066Z" fill="#A95552" stroke="#1F2E31" stroke-width="0.51" stroke-miterlimit="10"/>
<path d="M102.511 13.2068L100.399 14.9251V18.7082C100.399 18.923 100.448 19.0824 100.551 19.2002C100.647 19.311 100.819 19.4011 101.06 19.4635V19.7961H96.6851V19.4635C96.9327 19.3942 97.1047 19.3041 97.201 19.1932C97.2973 19.0824 97.3454 18.923 97.3454 18.7082V6.75604C97.3454 6.54817 97.2973 6.38881 97.201 6.27795C97.1047 6.16709 96.9327 6.07701 96.6851 6.00772V5.67514H101.06V6.00772C100.812 6.07008 100.64 6.16016 100.544 6.27102C100.448 6.38188 100.399 6.54817 100.399 6.74911V11.6893L106.171 6.94311C106.439 6.72139 106.57 6.54817 106.57 6.41652C106.57 6.21559 106.37 6.07701 105.971 6.0008V5.66821H111.701V6.0008C111.46 6.0493 111.288 6.10473 111.185 6.16709C111.082 6.22945 110.786 6.46503 110.291 6.87383L109.5 7.53899L104.733 11.3983L110.14 17.953C110.642 18.5627 110.999 18.9507 111.219 19.1309C111.44 19.3041 111.722 19.4219 112.059 19.4773V19.8099H106.576V19.4773C106.941 19.4011 107.12 19.2695 107.12 19.0824C107.12 18.9854 106.955 18.729 106.625 18.3202L102.497 13.2206L102.511 13.2068Z" fill="#A95552" stroke="#1F2E31" stroke-width="0.51" stroke-miterlimit="10"/>
<path d="M117.259 13.6016V17.4679H126.277C126.483 17.4679 126.641 17.4194 126.751 17.3224C126.861 17.2254 126.951 17.0522 127.02 16.8027H127.35V20.4542H127.02C126.951 20.2048 126.861 20.0316 126.751 19.9346C126.641 19.8376 126.483 19.7891 126.277 19.7891H113.544V19.4565C113.792 19.3872 113.964 19.2971 114.06 19.1863C114.157 19.0754 114.205 18.916 114.205 18.7012V6.7629C114.205 6.54811 114.157 6.38875 114.06 6.27789C113.964 6.16703 113.792 6.07695 113.544 6.00766V5.67508H126.036C126.242 5.67508 126.4 5.62658 126.511 5.52958C126.621 5.43257 126.71 5.25935 126.779 5.01685H127.109V8.66833H126.779C126.71 8.42582 126.621 8.2526 126.511 8.1556C126.4 8.05859 126.242 8.01009 126.036 8.01009H117.266V11.3636H122.954C123.161 11.3636 123.319 11.3151 123.429 11.2181C123.539 11.1211 123.628 10.9479 123.697 10.6985H124.027V14.2668H123.697C123.628 14.0243 123.539 13.858 123.429 13.7541C123.319 13.6571 123.161 13.6016 122.954 13.6016H117.266H117.259Z" fill="#A95552" stroke="#1F2E31" stroke-width="0.51" stroke-miterlimit="10"/>
<path d="M133.244 14.0381V18.722C133.244 18.9299 133.293 19.0892 133.396 19.2001C133.492 19.3109 133.664 19.401 133.905 19.4634V19.796H129.53V19.4634C129.778 19.3941 129.95 19.304 130.046 19.1932C130.142 19.0823 130.19 18.9229 130.19 18.7151V6.76287C130.19 6.54808 130.142 6.38872 130.046 6.27786C129.95 6.16699 129.778 6.07692 129.53 6.00763V5.67505H138.3C139.366 5.67505 140.212 5.73741 140.845 5.86213C141.471 5.98685 142.015 6.20164 142.482 6.51343C143.026 6.87373 143.425 7.35875 143.693 7.97541C143.947 8.57129 144.071 9.20181 144.071 9.88083C144.071 12.1812 142.799 13.5323 140.261 13.9273L142.984 17.8282C143.466 18.5141 143.817 18.9506 144.037 19.1446C144.257 19.3387 144.532 19.4495 144.855 19.4703V19.8029H139.793V19.4703C140.144 19.4149 140.316 19.2902 140.316 19.0961C140.316 18.9714 140.157 18.6735 139.834 18.1954L136.993 14.0381H133.251H133.244ZM133.244 11.71H137.97C138.672 11.71 139.16 11.6893 139.449 11.6477C139.738 11.6061 139.999 11.523 140.24 11.3913C140.763 11.1072 141.017 10.6014 141.017 9.86005C141.017 9.11867 140.756 8.61286 140.24 8.32878C139.992 8.19021 139.731 8.10013 139.456 8.06549C139.181 8.03084 138.685 8.01006 137.97 8.01006H133.244V11.717V11.71Z" fill="#A95552" stroke="#1F2E31" stroke-width="0.51" stroke-miterlimit="10"/>
<path d="M72.7683 32.6697H66.7495L66.0685 34.104C65.9035 34.4504 65.8209 34.7207 65.8209 34.9147C65.8209 35.2888 66.0685 35.5313 66.5707 35.6353V35.9678H61.7626V35.6353C62.0584 35.5868 62.2785 35.4967 62.4229 35.365C62.5674 35.2334 62.7393 34.9701 62.9319 34.5751L67.7125 24.8263C67.8914 24.4591 67.9808 24.1334 67.9808 23.8632C67.9808 23.5445 67.7607 23.2881 67.3273 23.108V22.7754H72.4106V23.108C71.9841 23.2812 71.7709 23.5445 71.7709 23.9117C71.7709 24.1681 71.8672 24.4868 72.0598 24.8679L77.0192 34.3188C77.2944 34.8315 77.5076 35.1641 77.6589 35.3165C77.8102 35.469 78.051 35.5729 78.3743 35.6353V35.9678H73.0296V35.6353C73.5387 35.5521 73.7863 35.3096 73.7863 34.9216C73.7863 34.6791 73.69 34.3742 73.4974 34.0139L72.7751 32.6628L72.7683 32.6697ZM71.8259 30.8197L69.6798 26.5793L67.6369 30.8197H71.819H71.8259Z" fill="#D6A24F" stroke="#1F2E31" stroke-width="0.51" stroke-miterlimit="10"/>
<path d="M83.0587 27.2791V34.7552C83.0587 34.9977 83.1137 35.1848 83.2306 35.3165C83.3407 35.4481 83.5333 35.5521 83.8084 35.6352V35.9678H79.4612V35.6352C79.7363 35.5659 79.9289 35.462 80.039 35.3303C80.149 35.1987 80.2109 35.0116 80.2109 34.7622V23.974C80.2109 23.7315 80.1559 23.5444 80.0459 23.4197C79.9358 23.295 79.7432 23.1841 79.4612 23.101V22.7684H84.4894V23.101C84.1455 23.1841 83.9735 23.3435 83.9735 23.5583C83.9735 23.7454 84.0973 23.9671 84.345 24.2165L91.368 31.2354V23.9671C91.368 23.7246 91.3129 23.5375 91.2029 23.4059C91.0928 23.2742 90.9002 23.1703 90.6182 23.0941V22.7615H94.9655V23.0941C94.6834 23.1703 94.4908 23.2742 94.3808 23.4059C94.2707 23.5375 94.2157 23.7246 94.2157 23.9671V34.7414C94.2157 34.9839 94.2707 35.171 94.3808 35.3026C94.4908 35.4343 94.6834 35.5382 94.9655 35.6283V35.9609H90.2743V35.6283C90.6182 35.559 90.7902 35.4135 90.7902 35.1987C90.7902 35.0878 90.742 34.977 90.6526 34.8592C90.5563 34.7414 90.3431 34.5127 90.0129 34.1732L83.0587 27.2721V27.2791Z" fill="#D6A24F" stroke="#1F2E31" stroke-width="0.51" stroke-miterlimit="10"/>
<path d="M100.86 27.2791V34.7552C100.86 34.9977 100.915 35.1848 101.032 35.3165C101.142 35.4481 101.335 35.5521 101.61 35.6352V35.9678H97.2627V35.6352C97.5378 35.5659 97.7304 35.462 97.8405 35.3303C97.9506 35.1987 98.0125 35.0116 98.0125 34.7622V23.974C98.0125 23.7315 97.9574 23.5444 97.8474 23.4197C97.7373 23.295 97.5447 23.1841 97.2627 23.101V22.7684H102.291V23.101C101.947 23.1841 101.775 23.3435 101.775 23.5583C101.775 23.7454 101.899 23.9671 102.146 24.2165L109.169 31.2354V23.9671C109.169 23.7246 109.114 23.5375 109.004 23.4059C108.894 23.2742 108.702 23.1703 108.42 23.0941V22.7615H112.767V23.0941C112.485 23.1703 112.292 23.2742 112.182 23.4059C112.072 23.5375 112.017 23.7246 112.017 23.9671V34.7414C112.017 34.9839 112.072 35.171 112.182 35.3026C112.292 35.4343 112.485 35.5382 112.767 35.6283V35.9609H108.076V35.6283C108.42 35.559 108.592 35.4135 108.592 35.1987C108.592 35.0878 108.544 34.977 108.454 34.8592C108.358 34.7414 108.145 34.5127 107.814 34.1732L100.86 27.2721V27.2791Z" fill="#D6A24F" stroke="#1F2E31" stroke-width="0.51" stroke-miterlimit="10"/>
<path d="M124.983 32.6697H118.965L118.284 34.104C118.119 34.4504 118.036 34.7207 118.036 34.9147C118.036 35.2888 118.284 35.5313 118.786 35.6353V35.9678H113.978V35.6353C114.274 35.5868 114.494 35.4967 114.638 35.365C114.783 35.2334 114.955 34.9701 115.147 34.5751L119.928 24.8263C120.107 24.4591 120.196 24.1334 120.196 23.8632C120.196 23.5445 119.976 23.2881 119.543 23.108V22.7754H124.626V23.108C124.199 23.2812 123.986 23.5445 123.986 23.9117C123.986 24.1681 124.082 24.4868 124.275 24.8679L129.234 34.3188C129.51 34.8315 129.723 35.1641 129.874 35.3165C130.025 35.469 130.266 35.5729 130.59 35.6353V35.9678H125.245V35.6353C125.754 35.5521 126.001 35.3096 126.001 34.9216C126.001 34.6791 125.905 34.3742 125.713 34.0139L124.99 32.6628L124.983 32.6697ZM124.041 30.8197L121.895 26.5793L119.852 30.8197H124.034H124.041Z" fill="#D6A24F" stroke="#1F2E31" stroke-width="0.51" stroke-miterlimit="10"/>
</svg>
